<svg width="640" height="336" viewBox="0 0 640 336" fill="none" xmlns="http://www.w3.org/2000/svg">
<path d="M162.283 327.838H173.668V324.509H165.941V299.068H162.283V327.838ZM176.329 327.838H179.74L181.22 319.536H187.261L188.823 327.838H192.686L186.768 298.904H181.918L176.329 327.838ZM181.754 316.495L184.055 303.425H184.261L186.686 316.495H181.754ZM197.719 327.838H201.377V302.397H206.267V299.068H192.869V302.397H197.719V327.838ZM209.725 327.838H213.383V299.068H209.725V327.838ZM218.474 327.838H221.598V305.973H221.721L228.667 327.879H232.161V299.068H229.037V319.331H228.914L222.626 299.068H218.474V327.838ZM243.629 328.332C248.15 328.332 250.452 325.126 250.452 320.892V305.891C250.452 301.493 248.232 298.575 243.67 298.575C239.108 298.575 236.847 301.493 236.847 305.85V321.468C236.847 325.742 239.149 328.332 243.629 328.332ZM243.629 324.92C241.368 324.92 240.505 323.153 240.505 321.139V305.685C240.505 303.63 241.327 301.986 243.629 301.986C245.931 301.986 246.794 303.63 246.794 305.685V321.139C246.794 323.276 246.054 324.92 243.629 324.92ZM253.07 327.838H256.481L257.961 319.536H264.003L265.564 327.838H269.428L263.509 298.904H258.66L253.07 327.838ZM258.495 316.495L260.797 303.425H261.002L263.427 316.495H258.495ZM272.699 327.838H275.782V303.137H276.028L280.22 327.838H283.961L288.112 303.055H288.358V327.838H291.975V299.068H285.974L282.399 321.714H282.234L278.535 299.068H272.699V327.838ZM297.062 327.838H308.447V324.591H300.72V314.522H307.09V311.234H300.72V302.315H308.447V299.068H297.062V327.838ZM301.378 297.383H304.172L308.611 291.588H304.789L301.378 297.383ZM312.595 327.838H316.253V315.467H319.459C321.308 315.467 322.007 316.577 322.048 318.714L322.212 325.126C322.253 326.318 322.418 327.181 322.747 327.838H326.363V327.633C325.952 326.729 325.788 325.742 325.747 324.427L325.583 318.098C325.541 315.796 324.884 314.193 322.747 313.412V313.33C324.719 312.426 326.199 310.124 326.199 306.754V306.549C326.199 301.658 323.815 299.068 319.253 299.068H312.595V327.838ZM316.253 312.59V302.356H318.924C321.514 302.356 322.459 304.74 322.459 306.549V308.234C322.459 310.248 321.637 312.59 318.883 312.59H316.253ZM330.978 327.838H334.636V299.068H330.978V327.838ZM346.18 328.332C350.66 328.332 352.756 325.167 352.756 320.892V318.303H349.222V321.098C349.222 323.523 348.317 324.92 346.139 324.92C343.879 324.92 342.974 323.235 342.974 320.851V305.727C342.974 303.425 344.002 301.986 346.139 301.986C348.235 301.986 349.222 303.466 349.222 305.809V308.686H352.756V305.768C352.756 301.206 350.619 298.575 346.386 298.575C342.152 298.575 339.316 300.877 339.316 305.973V321.386C339.316 326.194 341.782 328.332 346.18 328.332ZM354.897 327.838H358.308L359.788 319.536H365.829L367.391 327.838H371.255L365.336 298.904H360.486L354.897 327.838ZM360.322 316.495L362.624 303.425H362.829L365.254 316.495H360.322ZM387.077 328.332C391.598 328.332 393.9 325.126 393.9 320.892V305.891C393.9 301.493 391.681 298.575 387.119 298.575C382.556 298.575 380.296 301.493 380.296 305.85V321.468C380.296 325.742 382.598 328.332 387.077 328.332ZM387.077 324.92C384.817 324.92 383.954 323.153 383.954 321.139V305.685C383.954 303.63 384.776 301.986 387.077 301.986C389.379 301.986 390.242 303.63 390.242 305.685V321.139C390.242 323.276 389.502 324.92 387.077 324.92ZM398.568 327.838H401.691V305.973H401.815L408.761 327.879H412.254V299.068H409.131V319.331H409.007L402.719 299.068H398.568V327.838ZM423.533 327.838H427.191V314.522H433.561V311.193H427.191V302.397H434.918V299.068H423.533V327.838ZM438.584 327.838H442.242V299.068H438.584V327.838ZM447.334 327.838H458.719V324.509H450.992V299.068H447.334V327.838ZM462.506 327.838H465.588V303.137H465.835L470.027 327.838H473.767L477.918 303.055H478.165V327.838H481.781V299.068H475.781L472.205 321.714H472.041L468.342 299.068H462.506V327.838Z" fill="#232323"/>
<path d="M112.101 2.02786H150.919V38.6061H112.101V2.02786ZM112.101 262.181V48.3106H150.919V262.181H112.101ZM161.37 262.181V2.02786H205.04L224.449 134.904H227.808V2.02786H266.626V262.181H220.716L203.92 125.2H200.188V262.181H161.37ZM343.888 262.181H277.077V2.02786H343.515V42.7119H321.866V116.242H339.036V137.517H321.866V221.497H343.888V262.181ZM465.193 262.181V2.02786H509.61V221.497H528.272V262.181H465.193ZM583.14 39.7259L582.393 169.243H593.217L592.471 39.7259H583.14ZM351.726 221.497V42.7119C351.726 14.345 363.67 0.161621 388.678 0.161621H417.418C442.425 0.161621 454.369 14.345 454.369 42.7119V221.497C454.369 249.864 442.425 264.048 417.418 264.048H388.678C363.67 264.048 351.726 249.864 351.726 221.497ZM398.009 220.378C398.009 224.11 399.875 226.35 403.234 226.35C406.593 226.35 408.46 224.11 408.46 220.378V43.0851C408.46 39.3526 406.593 37.1131 403.234 37.1131C399.875 37.1131 398.009 39.3526 398.009 43.0851V220.378ZM56.8604 220.378V145.728H102.77V222.617C102.77 250.984 90.8259 265.167 65.8183 265.167H39.691C14.6834 265.167 0.5 249.864 0.5 221.497V42.7119C0.5 14.345 12.4439 0.161621 37.4515 0.161621H65.8183C90.8259 0.161621 102.77 14.345 102.77 42.7119V119.601H56.8604V43.0851C56.8604 39.3526 54.9942 37.1131 51.6349 37.1131C48.2757 37.1131 46.4095 39.3526 46.4095 43.0851V220.378C46.4095 224.11 48.2757 226.35 51.6349 226.35C54.9942 226.35 56.8604 224.11 56.8604 220.378ZM639.5 262.181H595.083L593.591 190.891H581.647L580.527 262.181H536.857L543.949 0.161621H632.408L639.5 262.181Z" fill="#232323"/>
</svg>
